<svg id="Шар_1" data-name="Шар 1" xmlns="http://www.w3.org/2000/svg" width="121.45297" height="32" viewBox="0 0 121.45297 32">
  <g>
    <g>
      <circle cx="25.22648" cy="16" r="13.7" fill="#ff592c"/>
      <g>
        <path d="M25.22648,19.75a1.1,1.1,0,1,0-1.1-1.1A1.1,1.1,0,0,0,25.22648,19.75Z" fill="#fff"/>
        <path d="M30.72648,16.55l-2.2-1.5a1.08382,1.08382,0,0,0-1.1-.8,1.1,1.1,0,0,0,0,2.2h.1l1.9,1.3v3.4h-8.3v-3.4l1.9-1.2h0a1.1,1.1,0,1,0,.001-2.2h-.001a1.0879,1.0879,0,0,0-1.1.9l-2.1,1.4a1.38027,1.38027,0,0,0-.3.4.6012.6012,0,0,0-.1.4v4.7a.89626.89626,0,0,0,.8925.9h10.1075a.89627.89627,0,0,0,.9-.89251V17.45a.60125.60125,0,0,0-.1-.4A1.17969,1.17969,0,0,0,30.72648,16.55Z" fill="#fff"/>
        <path d="M33.12648,13.05l-4.3-3.2a.51951.51951,0,0,0-.4-.2h-6.4c-.1,0-.1,0-.2.1l-4.5,3.3a.752.752,0,0,0-.5.7v6.2a.78875.78875,0,0,0,.77732.8q.01134.00016.02268,0a.86031.86031,0,0,0,.8-.8v-5.5l4-3h5.5l4.1,3v5.6a.8.8,0,0,0,1.6,0v-6.2A.6884.6884,0,0,0,33.12648,13.05Z" fill="#fff"/>
      </g>
    </g>
    <g>
      <path d="M47.27285,12.26739V14.5205h4.59287v2.2531H47.27285v3.553H44.32648V9.92763h8.14584v2.25311H47.27285Z"/>
      <path d="M53.68553,11.05418a1.16642,1.16642,0,0,1-.43329-1.03989,1.435,1.435,0,0,1,.43329-1.03989,1.87849,1.87849,0,0,1,1.21321-.43329A1.71432,1.71432,0,0,1,56.112,8.9744a1.16639,1.16639,0,0,1,.43328,1.03989,1.82521,1.82521,0,0,1-.43328,1.12655,1.87857,1.87857,0,0,1-1.21322.43329A3.0383,3.0383,0,0,1,53.68553,11.05418Zm-.17331,1.29987h2.8597v8.05918h-2.8597Z"/>
      <path d="M63.73784,20.0666a2.59484,2.59484,0,0,1-.86658.34663,4.57772,4.57772,0,0,1-1.12655.08666A3.54986,3.54986,0,0,1,59.31829,19.72a3.20669,3.20669,0,0,1-.86658-2.33976v-2.6864H57.2385V12.614h1.21321V10.53424h2.85971V12.614h1.81982v2.07979H61.31142v2.6864a.984.984,0,0,0,.26.69326.78668.78668,0,0,0,.6066.26,1.464,1.464,0,0,0,.86658-.26Z"/>
      <path d="M69.28394,10.01429h4.9395a6.77992,6.77992,0,0,1,3.033.6066,5.29609,5.29609,0,0,1,2.07979,1.81982,4.90067,4.90067,0,0,1,.69326,2.77305,5.71655,5.71655,0,0,1-.69326,2.773,4.76015,4.76015,0,0,1-2.07979,1.81982,6.77978,6.77978,0,0,1-3.033.6066h-4.9395Zm4.76619,8.05918a3.02054,3.02054,0,0,0,2.16644-.77992,2.8109,2.8109,0,0,0,.77993-2.07979,2.81092,2.81092,0,0,0-.77993-2.07979,2.88359,2.88359,0,0,0-2.16644-.77992H72.23031v5.71942Z"/>
      <path d="M83.06255,19.97994a4.50089,4.50089,0,0,1-1.6465-1.47318,3.72238,3.72238,0,0,1-.60661-2.16645,3.91121,3.91121,0,0,1,.60661-2.16644,4.501,4.501,0,0,1,1.6465-1.47319,5.52445,5.52445,0,0,1,4.67952,0,4.501,4.501,0,0,1,1.6465,1.47319,4.242,4.242,0,0,1,.60661,2.16644,3.54692,3.54692,0,0,1-.60661,2.16645,3.90607,3.90607,0,0,1-1.6465,1.47318,5.15955,5.15955,0,0,1-2.33976.52A3.6138,3.6138,0,0,1,83.06255,19.97994Zm3.553-2.16644a1.79013,1.79013,0,0,0,.43329-1.38653,2.205,2.205,0,0,0-.43329-1.38653,1.67539,1.67539,0,0,0-2.36865-.05777q-.0296.02817-.05778.05777A1.79018,1.79018,0,0,0,83.7558,16.427a2.20508,2.20508,0,0,0,.43329,1.38653,1.45415,1.45415,0,0,0,1.21322.51994A1.57343,1.57343,0,0,0,86.61552,17.8135Z"/>
      <path d="M99.87418,12.35405v6.586A4.59335,4.59335,0,0,1,98.661,22.31971a4.77942,4.77942,0,0,1-3.46632,1.12655,9.44514,9.44514,0,0,1-2.2531-.26,4.57851,4.57851,0,0,1-1.73316-.77992l1.03989-1.99313a3.20134,3.20134,0,0,0,1.21322.60661,7.4389,7.4389,0,0,0,1.47318.26,2.2063,2.2063,0,0,0,1.6465-.51994,1.90521,1.90521,0,0,0,.51994-1.47319v-.26a3.00287,3.00287,0,0,1-2.42642.95323A4.02543,4.02543,0,0,1,92.68157,19.46a4.48418,4.48418,0,0,1-1.47318-1.38653,4.117,4.117,0,0,1-.51995-2.07979,3.58978,3.58978,0,0,1,.51995-1.99313A3.78114,3.78114,0,0,1,92.68157,12.614a4.02554,4.02554,0,0,1,1.99313-.51995,2.80467,2.80467,0,0,1,2.51308,1.12655v-.95324h2.68639Zm-3.293,4.9395a1.67538,1.67538,0,0,0,.05778-2.36864q-.02818-.0296-.05778-.05778a2.16645,2.16645,0,0,0-2.59974,0,1.45414,1.45414,0,0,0-.51994,1.21321,1.5734,1.5734,0,0,0,.51994,1.21321,1.70176,1.70176,0,0,0,1.29987.43329A1.59177,1.59177,0,0,0,96.58118,17.29355Z"/>
      <path d="M109.83983,17.12023h-5.80607a1.54179,1.54179,0,0,0,.69327.95324,2.08848,2.08848,0,0,0,1.29986.34663,4.3493,4.3493,0,0,0,1.03989-.17331,2.30889,2.30889,0,0,0,.86658-.52l1.47318,1.55984a4.38455,4.38455,0,0,1-3.46631,1.29987,5.92658,5.92658,0,0,1-2.51308-.51995,3.45332,3.45332,0,0,1-1.6465-1.47318,3.72237,3.72237,0,0,1-.6066-2.16645,3.91125,3.91125,0,0,1,.6066-2.16645,3.6712,3.6712,0,0,1,1.55984-1.47318,4.79765,4.79765,0,0,1,2.25311-.51995,4.45,4.45,0,0,1,2.16644.51995,3.644,3.644,0,0,1,1.55985,1.47318,4.5748,4.5748,0,0,1,.6066,2.25311A5.96915,5.96915,0,0,1,109.83983,17.12023Zm-5.28612-2.51307a1.97662,1.97662,0,0,0-.51995,1.03989h3.293a1.97668,1.97668,0,0,0-.51994-1.03989A2.004,2.004,0,0,0,104.55371,14.60716Z"/>
    </g>
  </g>
</svg>
