<svg id="Layer_1" data-name="Layer 1" xmlns="http://www.w3.org/2000/svg" width="167" height="64" viewBox="0 0 167 64">
  <g>
    <path d="M62.553,22.80687c.26735.132.44148.22.61734.30441a3.7823,3.7823,0,0,1,2.29515,3.924,3.76094,3.76094,0,0,1-2.534,3.55181,6.51168,6.51168,0,0,1-2.20244.5403c-2.92524.06115-5.85251.02511-8.83582.02511V15.20187c.177-.01693.36352-.05076.55-.05019,2.53365.00768,5.06809-.01208,7.60037.05243a6.3351,6.3351,0,0,1,2.06876.46389,3.59049,3.59049,0,0,1,2.42282,3.00017A3.71418,3.71418,0,0,1,62.98234,22.482C62.86441,22.56442,62.75248,22.65547,62.553,22.80687Zm-7.24658,1.83458v3.42311c1.69052,0,3.33306.06963,4.96629-.02367A1.688,1.688,0,1,0,60.262,24.666C58.63051,24.5697,56.98914,24.64145,55.30639,24.64145ZM55.28916,21.543c1.50354,0,2.92519.07442,4.3344-.02594a1.54176,1.54176,0,0,0,1.481-1.63,1.51143,1.51143,0,0,0-1.47375-1.55413c-1.42971-.09672-2.87078-.02536-4.34164-.02536Z" fill="#b1b5c4"/>
    <path d="M23.49058,21.91706,16.49,28.93417,12.46833,24.9044,23.45847,13.92922,34.47284,24.87948l-4.04248,4.04275Z" fill="#b1b5c4"/>
    <path d="M12.404,39.03872l3.92805-3.96564,7.00375,7.02367,6.99425-7.02737,4.0392,4.05818L23.42251,50.07078Z" fill="#b1b5c4"/>
    <path d="M114.19142,15.19306h3.225l7.52,9.87414V15.19214h3.39852V31.12972h-2.996l-7.60892-9.98049-.14142.05119v9.94893h-3.39709Z" fill="#b1b5c4"/>
    <path d="M91.86828,31.15776H88.88781L81.2593,21.15431l-.15144.05743v9.943h-3.4005V15.191h3.23338l7.37732,9.68556.14763-.05073v-9.633h3.40259Z" fill="#b1b5c4"/>
    <path d="M149.6059,31.1407V15.1993h11.96979V18.275h-8.5002v3.2511h7.50675V24.639H153.091v3.41157h8.59737V31.1407Z" fill="#b1b5c4"/>
    <path d="M111.50416,31.15885h-3.67309l-1.46632-3.54776h-6.791L98.1066,31.15246H94.52748c2.28657-5.3792,4.55561-10.7172,6.83479-16.07905h3.30141C106.93182,20.407,109.20467,25.75158,111.50416,31.15885Zm-8.53728-11.91348L100.83854,24.454h4.25978C104.39469,22.73455,103.7226,21.09215,102.96688,19.24537Z" fill="#b1b5c4"/>
    <path d="M146.52525,17.37433l-2.21577,2.55277a5.65574,5.65574,0,0,0-5.04922-1.72311,4.34685,4.34685,0,0,0-2.67912,1.70576,5.5343,5.5343,0,0,0,.40355,6.99135c1.88383,1.91264,4.48975,1.74914,7.38717-.44792l2.17782,2.20465c-1.41933,2.19407-5.29285,3.39822-8.52982,2.58943a8.05207,8.05207,0,0,1-6.12634-7.04272c-.31981-3.93751,1.52192-7.2335,4.83307-8.64933C140.07339,14.12413,144.31315,14.89738,146.52525,17.37433Z" fill="#b1b5c4"/>
    <path d="M61.65348,36.20765h1.96323l3.25853,5.0485,3.24946-5.03432h1.91951V46.85572H70.29246V39.49907l-.16058-.06517-3.28955,4.8662L63.504,39.32063v7.53809H61.65348Z" fill="#b1b5c4"/>
    <path d="M154.21229,39.51265v7.36341h-1.76935V36.25044h1.72021l5.54617,7.14732.1515-.03863V36.23524h1.8049V46.87016h-1.54286c-1.89359-2.43765-3.827-4.92658-5.76038-7.41549Z" fill="#b1b5c4"/>
    <path d="M93.21644,42.88476l2.81989,3.98562H93.84318c-.84941-1.19592-1.72925-2.43468-2.61711-3.68475H88.88663v3.67594H87.04606v-10.527c2.02208,0,4.03652-.12917,6.02512.0419a2.94008,2.94008,0,0,1,2.63981,2.7616,3.199,3.199,0,0,1-2.0348,3.5456C93.54193,42.743,93.4072,42.80136,93.21644,42.88476Zm-4.28541-4.92v3.60237a34.17808,34.17808,0,0,0,3.629-.23377,1.71047,1.71047,0,0,0-.2398-3.34891C91.20653,37.90194,90.082,37.96476,88.931,37.96476Z" fill="#b1b5c4"/>
    <path d="M69.445,15.17638h3.37287V31.13606H69.445Z" fill="#b1b5c4"/>
    <path d="M132.59229,46.88373h-1.72477V42.44328h-5.14768V46.867h-1.869V36.2384h1.82993v4.35744h5.15588V36.22557h1.75563Z" fill="#b1b5c4"/>
    <path d="M139.2126,36.17248h1.782c1.54561,3.5395,3.09292,7.08292,4.672,10.69911H143.706l-1.09643-2.53577h-5.05516l-1.12031,2.55066h-1.89663C136.11187,43.27836,137.65847,39.73406,139.2126,36.17248Zm2.70873,6.4626-1.8448-4.28089-1.83734,4.28089Z" fill="#b1b5c4"/>
    <path d="M85.13768,46.89158h-1.966l-1.09482-2.54877h-5.063L75.895,46.88549H73.99982l4.66453-10.696H80.4609C81.99173,39.69254,83.54013,43.23584,85.13768,46.89158ZM81.38584,42.6379l-1.85221-4.28266L77.69837,42.6379Z" fill="#b1b5c4"/>
    <path d="M51.102,45.3547l1.10761-1.3049c.233.15883.44857.3014.65961.45041a4.43394,4.43394,0,0,0,3.27124.84358,1.35857,1.35857,0,0,0,1.34934-1.14051c.119-.78562-.34731-1.19167-1.01051-1.4104-1.07042-.353-2.18454-.59464-3.2204-1.02668a2.80559,2.80559,0,0,1-1.048-4.47128,3.75066,3.75066,0,0,1,1.43833-.97108,5.53715,5.53715,0,0,1,5.37305,1.09134l-.85669,1.25808c-.816-.313-1.57961-.61459-2.35088-.89511a1.95029,1.95029,0,0,0-.58221-.08422,1.59423,1.59423,0,0,0-1.78679,1.09484c-.13725.73912.21237,1.19573,1.24382,1.53978.90656.3024,1.84645.51309,2.73594.85665a2.6358,2.6358,0,0,1,1.95922,2.85791,2.89845,2.89845,0,0,1-2.246,2.7736A6.3906,6.3906,0,0,1,51.102,45.3547Z" fill="#b1b5c4"/>
    <path d="M120.55769,44.06953l1.15658,1.1096c-1.55977,2.235-5.416,2.58077-7.71119.68316a5.61185,5.61185,0,1,1,7.70078-8.13672l-1.15828,1.33908a3.80691,3.80691,0,0,0-3.75249-1.20953,4.26956,4.26956,0,0,0-1.97916,1.28675,3.99009,3.99009,0,0,0,.348,5.25232C116.59948,45.79512,118.517,45.67119,120.55769,44.06953Z" fill="#b1b5c4"/>
    <path d="M41.61618,32.03594l-3.94077,3.93961L33.73492,32.0003l3.89823-3.89421Z" fill="#b1b5c4"/>
    <path d="M9.18779,35.96552,5.31164,32.08987l3.95867-3.95593,3.87094,3.88634Z" fill="#b1b5c4"/>
    <path d="M19.472,31.95332l3.97222-3.96475,3.92966,4.02126L23.44954,35.9357Z" fill="#b1b5c4"/>
    <path d="M102.55393,46.88492h-1.88246V37.97684H97.27665V36.246h8.57541v1.68289h-3.29813Z" fill="#b1b5c4"/>
    <path d="M149.4262,46.87232h-1.72944V36.24823h1.72944Z" fill="#b1b5c4"/>
  </g>
</svg>
