<svg id="Layer_1" data-name="Layer 1" xmlns="http://www.w3.org/2000/svg" width="167" height="64" viewBox="0 0 167 64">
  <g>
    <path d="M39.23756,19.18969l.19023,1.18889a21.83689,21.83689,0,0,1,.19022,3.30513,31.01714,31.01714,0,0,1-.856,7.25223,28.06718,28.06718,0,0,1-3.92335,9.03558,28.05432,28.05432,0,0,1-9.63,8.72647l-.54689.30911-.54689-.30911a27.09739,27.09739,0,0,1-13.55336-17.762,31.01715,31.01715,0,0,1-.856-7.25223,25.67579,25.67579,0,0,1,.19023-3.30512l.16644-1.18889a.57956.57956,0,0,0,0-.28534.52775.52775,0,0,0-.11889-.26155.72363.72363,0,0,0-.19022-.19023.99421.99421,0,0,0-.23778-.09511.57952.57952,0,0,0-.28533,0,.87918.87918,0,0,0-.26156.11889.72374.72374,0,0,0-.19022.19022,1.33987,1.33987,0,0,0-.09511.28534l-.19023,1.18889a29.222,29.222,0,0,0-.214,3.5429,32.8,32.8,0,0,0,.90356,7.6089,30.1481,30.1481,0,0,0,1.64067,4.94579,28.318,28.318,0,0,0,12.626,13.71981l.87978.49934a.92737.92737,0,0,0,.71333,0l.87978-.49934a29.299,29.299,0,0,0,10.12936-9.15446,28.73869,28.73869,0,0,0,4.13734-9.51114,32.77665,32.77665,0,0,0,.87978-7.6089,29.90887,29.90887,0,0,0-.214-3.56668l-.19022-1.18889a1.34091,1.34091,0,0,0-.09511-.28533.72378.72378,0,0,0-.19022-.19023.87929.87929,0,0,0-.26156-.11889.57952.57952,0,0,0-.28533,0,1.341,1.341,0,0,0-.28534.09511.72363.72363,0,0,0-.19022.19023.87887.87887,0,0,0-.11889.26155Z" fill="#b1b5c4" fill-rule="evenodd"/>
    <path d="M14.05684,18.38125l10.65247-3.35268,10.86647,3.424a1.15752,1.15752,0,0,0,.28533.02378.6331.6331,0,0,0,.28534-.07134.60381.60381,0,0,0,.23777-.19022.38179.38179,0,0,0,.11889-.26156,1.15752,1.15752,0,0,0,.02378-.28533.63317.63317,0,0,0-.07133-.28533.85394.85394,0,0,0-.16645-.23778.38179.38179,0,0,0-.26155-.11889L24.92331,13.50679a.65978.65978,0,0,0-.428,0l-10.84269,3.424a1.274,1.274,0,0,0-.26156.11888.54356.54356,0,0,0-.16644.23778.6331.6331,0,0,0-.07134.28534,1.15752,1.15752,0,0,0,.02378.28533.879.879,0,0,0,.11889.26156.64728.64728,0,0,0,.23778.19022.507.507,0,0,0,.28533.07133A.39674.39674,0,0,0,14.05684,18.38125Z" fill="#b1b5c4" fill-rule="evenodd"/>
    <path d="M8.80194,19.4037l15.24159,30.721a.699.699,0,0,0,.23777.28534.72983.72983,0,0,0,.76089,0,.8197.8197,0,0,0,.28534-.28534l9.29713-17.95226.02378-.02378,5.94446-12.7687a.63317.63317,0,0,0,.07133-.28533.60322.60322,0,0,0-.04755-.28533.56686.56686,0,0,0-.14267-.26156.82022.82022,0,0,0-.214-.19022.507.507,0,0,0-.28533-.07134,1.1576,1.1576,0,0,0-.28534.02378.56674.56674,0,0,0-.26155.14267.54353.54353,0,0,0-.16645.23778L33.31688,31.45905,24.66175,48.17487,10.06216,18.69035c-.04755-.07133-.11889-.16644-.16644-.23778a.5669.5669,0,0,0-.26156-.14266.39761.39761,0,0,0-.28533-.02378.63321.63321,0,0,0-.28534.07133.82058.82058,0,0,0-.214.19022.87929.87929,0,0,0-.11889.26156.58554.58554,0,0,0-.02377.28534A1.17689,1.17689,0,0,0,8.80194,19.4037Z" fill="#b1b5c4" fill-rule="evenodd"/>
    <path d="M16.10173,33.09973H33.07911a1.19337,1.19337,0,0,0,.28533-.04756.37946.37946,0,0,0,.214-.16645.49342.49342,0,0,0,.14267-.23778.79779.79779,0,0,0-.14267-.80844,1.30764,1.30764,0,0,0-.214-.16645,1.19337,1.19337,0,0,0-.28533-.04756H16.10173a1.19337,1.19337,0,0,0-.28533.04756.37946.37946,0,0,0-.214.16645.49334.49334,0,0,0-.14267.23778.78766.78766,0,0,0,0,.57066.49342.49342,0,0,0,.14267.23778,1.30721,1.30721,0,0,0,.214.16645C15.91151,33.076,16.00662,33.076,16.10173,33.09973Zm47.31789-6.39624H52.38671a1.194,1.194,0,0,0-.28534.04755.37943.37943,0,0,0-.214.16645.49342.49342,0,0,0-.14267.23778,1.19336,1.19336,0,0,0-.04756.28534v9.15446a1.19353,1.19353,0,0,0,.04756.28534.49334.49334,0,0,0,.14267.23778,1.30721,1.30721,0,0,0,.214.16645,1.19334,1.19334,0,0,0,.28534.04755H63.41962v1.54556H52.38671a2.6208,2.6208,0,0,1-.428-.04755,2.87546,2.87546,0,0,1-.428-.11889,1.89616,1.89616,0,0,1-.38045-.19022c-.11889-.09511-.214-.19022-.33289-.28534a2.34155,2.34155,0,0,1-.47555-.71334,2.87447,2.87447,0,0,1-.11889-.428,2.62,2.62,0,0,1-.04756-.428v-9.202a2.61972,2.61972,0,0,1,.04756-.428,2.87425,2.87425,0,0,1,.11889-.428,2.10822,2.10822,0,0,1,.19022-.40422,1.25138,1.25138,0,0,1,.28533-.33289,4.14147,4.14147,0,0,1,.33289-.28534,1.89563,1.89563,0,0,1,.38045-.19022,2.87492,2.87492,0,0,1,.428-.11889,2.61984,2.61984,0,0,1,.428-.04756H63.41962v1.47423Zm20.71049-1.54556v1.54556H73.50142v4.54156h8.53624v1.56934H73.50142V37.356H84.13011v1.54556H72.0272V25.15793Z" fill="#b1b5c4" fill-rule="evenodd"/>
    <path d="M106.0295,27.48816v4.01845a2.61972,2.61972,0,0,1-.04756.428,2.87425,2.87425,0,0,1-.11889.428,2.10822,2.10822,0,0,1-.19022.40422,1.91727,1.91727,0,0,1-.28534.33289,4.14126,4.14126,0,0,1-.33288.28534,1.89563,1.89563,0,0,1-.38045.19022l-.428.14267a2.62,2.62,0,0,1-.428.04756h-2.02111l4.16112,5.11223h-1.99734l-4.13734-5.11223H94.97281a3.6288,3.6288,0,0,1-.71333-.07134v5.18357h-1.498v-13.696H103.842a2.6208,2.6208,0,0,1,.428.04755,2.87579,2.87579,0,0,1,.428.11889,1.20605,1.20605,0,0,1,.38044.214,2.45,2.45,0,0,1,.59445.61823,2.1079,2.1079,0,0,1,.19022.40422,2.87492,2.87492,0,0,1,.11889.428A3.57482,3.57482,0,0,1,106.0295,27.48816ZM94.949,32.24373h8.86913a1.19337,1.19337,0,0,0,.28533-.04756.30247.30247,0,0,0,.214-.16645.49342.49342,0,0,0,.14267-.23778,1.19336,1.19336,0,0,0,.04756-.28534V27.48815a.83091.83091,0,0,0-.19022-.52311.66921.66921,0,0,0-.49934-.23778H94.949a1.19337,1.19337,0,0,0-.28533.04756.37946.37946,0,0,0-.214.16644.49342.49342,0,0,0-.14267.23778,1.19336,1.19336,0,0,0-.04756.28534v4.01845a.67433.67433,0,0,0,.23778.52312A.57468.57468,0,0,0,94.949,32.24373Z" fill="#b1b5c4"/>
    <path d="M113.97129,25.15793h13.268v1.54556h-5.87313V38.87774h-1.498V26.70349h-5.8969Zm21.35249,13.74359V25.18171h1.498V38.90152Zm21.44761-13.74359h1.926l-5.54023,6.87179,5.564,6.87179h-1.94979l-4.94578-6.08713h-4.28v6.08713h-1.498V25.1817h1.52178v6.08713h4.28Z" fill="#b1b5c4" fill-rule="evenodd"/>
  </g>
</svg>
