<svg id="Layer_1" data-name="Layer 1" xmlns="http://www.w3.org/2000/svg" width="167" height="64" viewBox="0 0 167 64">
  <g>
    <g>
      <path d="M100.97149,27.93589h5.25944v1.524h-5.25944Zm0,3.30209h4.75835V32.762h-4.75835Zm5.25944,3.30209h-5.25944v1.524h5.25944Z" fill="#b1b5c4" fill-rule="evenodd"/>
      <path d="M149.74081,27.93589h5.25944v1.524h-5.25944Zm0,3.30209h4.75836V32.762h-4.75836Zm5.25944,3.30209h-5.25944v1.524h5.25944Z" fill="#b1b5c4" fill-rule="evenodd"/>
      <path d="M140.1782,27.93589h3.80257a2.2863,2.2863,0,0,1,.49726,4.5179l1.91587,3.61032h-1.52237l-1.88671-3.5561h-1.28425v3.5561H140.1782V32.508h0V30.984h3.80449a.762.762,0,1,0,0-1.524H140.1782Z" fill="#b1b5c4" fill-rule="evenodd"/>
      <path d="M162.15308,32.762h-2.00815a1.99431,1.99431,0,0,1-.92183-.22554A2.38984,2.38984,0,0,1,157.869,30.349a2.45744,2.45744,0,0,1,2.40979-2.41306h4.01629v1.524h-4.01629a.8936.8936,0,0,0,0,1.778h2.20131a1.83809,1.83809,0,0,1,1.1872.43366,2.3102,2.3102,0,0,1,.89553,1.9794,2.45746,2.45746,0,0,1-2.40978,2.41308h-4.0163v-1.524h4.0163a.89361.89361,0,0,0,0-1.77807Z" fill="#b1b5c4" fill-rule="evenodd"/>
      <path d="M122.78142,29.45993h2.57473v-1.524h-6.69383v1.524h2.57473v6.60418h1.54437Z" fill="#b1b5c4" fill-rule="evenodd"/>
      <path d="M136.35316,32.47813V27.93589h-1.53672v4.55505a2.04927,2.04927,0,0,1-4.09853,0V27.93589H129.1812v4.54224a3.586,3.586,0,0,0,7.172,0Z" fill="#b1b5c4" fill-rule="evenodd"/>
      <path d="M111.55252,27.93589,113.673,32l.624,1.19537V27.93589h1.49655v8.12822H114.297L112.17648,32l-.624-1.19533v5.25944H110.056V27.93589Z" fill="#b1b5c4" fill-rule="evenodd"/>
      <path d="M94.87724,34.57392l3.22547-6.638H96.55452l-2.46668,5.07617-2.56517-5.07617H89.97449l3.35456,6.638h0l.7741,1.49019Z" fill="#b1b5c4" fill-rule="evenodd"/>
      <path d="M63.19917,27.93589h3.37776a2.35982,2.35982,0,0,1,0,4.71963H64.63361v3.40859H63.19922V32.65552h0V31.0823h3.51661a.78661.78661,0,1,0,0-1.57321H63.19917Z" fill="#b1b5c4" fill-rule="evenodd"/>
      <path d="M71.80552,36.06411V27.93589h1.49177V31.3445h3.23216V27.93589h1.49177v8.12822H76.52945V32.91772H73.29729v3.14639Z" fill="#b1b5c4" fill-rule="evenodd"/>
      <path d="M55.071,27.93589v8.12822h5.25944v-1.524H56.57367V27.93589Z" fill="#b1b5c4" fill-rule="evenodd"/>
      <rect x="80.89001" y="27.93589" width="1.43439" height="8.12822" fill="#b1b5c4"/>
      <path d="M40.16547,27.93589H37.85825v1.524h2.43252a2.54007,2.54007,0,1,1,0,5.08014H37.85825v1.524h2.30722A3.9085,3.9085,0,0,0,44.074,32.15563v-.31126A3.90848,3.90848,0,0,0,40.16547,27.93589Z" fill="#b1b5c4" fill-rule="evenodd"/>
      <path d="M46.4646,27.93589H51.724v1.524H46.4646Zm0,3.30209h4.75855V32.762H46.4646ZM51.724,34.54007H46.4646v1.524H51.724Z" fill="#b1b5c4" fill-rule="evenodd"/>
    </g>
    <g>
      <path d="M15.88366,45.72164c-.30089-.06025-.6094-.09569-.90131-.18518a4.24367,4.24367,0,0,1-2.41053-2.02281c-.10524-.176-.1995-.35852-.30412-.5349-.08606-.14509-.08045-.25212.09211-.3272a3.32515,3.32515,0,0,0,.30309-.17148c.2645-.15.37521-.1168.49685.15705a4.01362,4.01362,0,0,0,.96063,1.31822,2.9969,2.9969,0,0,0,4.37112-.2636,5.661,5.661,0,0,0,1.26037-2.8944,8.47684,8.47684,0,0,1,.47546-2.03116,4.98531,4.98531,0,0,1,3.22576-2.85693c.1233-.04056.24871-.07616.3751-.10564a.71953.71953,0,0,1,.83243.43841c.06613.16082.03164.27077-.14349.30756-.214.045-.4326.069-.64594.11663a3.867,3.867,0,0,0-3.05352,3.33037,11.5058,11.5058,0,0,1-.57422,2.57449,5.19983,5.19983,0,0,1-2.1161,2.61816,3.5128,3.5128,0,0,1-1.55025.49608c-.06721.00595-.13335.02393-.2.03633Z" fill="#b1b5c4"/>
      <path d="M2.43714,31.71427a8.431,8.431,0,0,1,.32539-1.2421,4.54361,4.54361,0,0,1,2.25071-2.26973c.40356-.20439.43216-.19582.6686.197.13039.21664.11456.30106-.09471.44119-.31265.20935-.64081.39789-.93953.62523a3.131,3.131,0,0,0-1.31848,2.25123,2.92628,2.92628,0,0,0,.831,2.36164,5.31318,5.31318,0,0,0,2.95427,1.49571,17.94917,17.94917,0,0,1,2.00473.42156,4.93771,4.93771,0,0,1,3.28247,3.62548.47615.47615,0,0,1-.27077.63369c-.56681.31522-.514.22664-.609-.26872A3.98841,3.98841,0,0,0,9.5552,37.05672a4.88838,4.88838,0,0,0-1.70314-.49936,8.95023,8.95023,0,0,1-2.68986-.70254A4.53435,4.53435,0,0,1,2.84645,33.68a8.98934,8.98934,0,0,1-.36723-1.29388c-.01953-.07184-.02833-.14658-.04208-.22Z" fill="#b1b5c4"/>
      <path d="M27.053,25.14825a6.54417,6.54417,0,0,1-.37434,1.89073c-.041.12673-.09719.18154-.23989.12178a3.7822,3.7822,0,0,0-.413-.12079c-.2511-.07269-.27628-.12854-.2083-.386a9.69048,9.69048,0,0,0,.24191-.993,3.02523,3.02523,0,0,0-2.11212-3.462,3.83372,3.83372,0,0,0-2.77659.30884,13.70785,13.70785,0,0,0-1.74746,1.06554,5.86367,5.86367,0,0,1-2.41493,1.07343,5.26884,5.26884,0,0,1-3.27719-.58907c-.09145-.04648-.181-.09685-.27021-.14753-.34915-.19829-.40058-.31879-.30194-.70263.11451-.44555.1393-.458.502-.18915a4.16389,4.16389,0,0,0,2.45441.8713,3.78431,3.78431,0,0,0,2.26782-.73164c.45993-.32158.89658-.678,1.36744-.982a5.75128,5.75128,0,0,1,3.5484-1.02153,3.80214,3.80214,0,0,1,3.63847,3.16431C26.99472,24.59137,27.01537,24.87158,27.053,25.14825Z" fill="#b1b5c4"/>
      <path d="M20.19988,21.23666c-.05037.02176-.10265.04-.15075.06593-.14444.07794-.286.16126-.431.23813-.21543.11421-.29513.08945-.39931-.13794a4.16538,4.16538,0,0,0-1.08431-1.45322,3.00359,3.00359,0,0,0-4.38673.4606,5.7471,5.7471,0,0,0-1.15552,2.76793,8.13122,8.13122,0,0,1-.59267,2.29375,5.10985,5.10985,0,0,1-3.29938,2.66434c-.0392.012-.07815.025-.11768.03589a.67686.67686,0,0,1-.91484-.52973c-.03312-.12451.03928-.1631.1331-.18213.181-.03671.36425-.06216.54521-.099a3.91621,3.91621,0,0,0,3.18413-3.46948,8.97589,8.97589,0,0,1,.57324-2.53035A5.29728,5.29728,0,0,1,14.37905,18.698a4.0484,4.0484,0,0,1,4.75157.89742,6.91273,6.91273,0,0,1,.96523,1.47049c.01861.0364.03255.07518.04867.11285Z" fill="#b1b5c4"/>
      <path d="M5.2836,38.848a6.51086,6.51086,0,0,1,.37091-1.888c.04007-.121.10226-.16364.22995-.1196.13538.04668.27768.07288.41492.11471.255.07772.30685.176.21041.42824a4.27683,4.27683,0,0,0-.2512,1.77366A3.00312,3.00312,0,0,0,8.9572,41.905a5.00931,5.00931,0,0,0,3.18957-.92729c.37688-.24856.73468-.52579,1.10717-.78124A4.87624,4.87624,0,0,1,18.00176,39.67a5.40018,5.40018,0,0,1,.83458.38917.75241.75241,0,0,1,.31127.9802c-.05844.129-.13766.16335-.25835.0962a1.6707,1.6707,0,0,1-.224-.14288,3.866,3.866,0,0,0-4.71321-.15922c-.4568.31394-.89251.65926-1.35595.96264a6.04675,6.04675,0,0,1-3.42,1.0511,3.88952,3.88952,0,0,1-3.81465-3.266C5.32321,39.33871,5.30894,39.09247,5.2836,38.848Z" fill="#b1b5c4"/>
      <path d="M6.14368,25.19735a5.726,5.726,0,0,0,1.02251,2.83653c.27022.4116.581.79688.84677,1.21113a5.01578,5.01578,0,0,1,.08446,5.50921.466.466,0,0,1-.60975.24356c-.63784-.1449-.56519-.17862-.27466-.61157a4.72812,4.72812,0,0,0,.8178-2.03639,3.57242,3.57242,0,0,0-.60445-2.4559c-.27825-.43055-.59513-.836-.88614-1.25854a6.607,6.607,0,0,1-1.16877-2.77052,3.95131,3.95131,0,0,1,2.28414-4.36532A4.48429,4.48429,0,0,1,10.7525,21.38a1.38478,1.38478,0,0,1,.23519.07121c.11633.0579.31429.12538.31931.19953a1.27228,1.27228,0,0,1-.11292.58477c-.026.05821-.23424.06629-.3509.04717-.337-.05522-.66762-.14906-1.00458-.20442a3.044,3.044,0,0,0-3.46825,1.97859A8.99336,8.99336,0,0,0,6.14368,25.19735Z" fill="#b1b5c4"/>
      <path d="M25.41406,29.17941c-.12484.17847-.22161.31711-.31866.45554a4.08067,4.08067,0,0,0-.78275,2.84145,3.96149,3.96149,0,0,0,.84283,1.99563,10.074,10.074,0,0,1,1.34931,2.10035,5.1298,5.1298,0,0,1,.37493,3.35974,3.88992,3.88992,0,0,1-4.03651,2.87573,15.508,15.508,0,0,1-1.58869-.29031.27147.27147,0,0,1-.24495-.3519c.00205-.01351.00287-.0272.00441-.0408.05275-.46621.12406-.51794.57271-.39849a4.71846,4.71846,0,0,0,2.0865.18313,3.00507,3.00507,0,0,0,2.45457-2.629A4.74877,4.74877,0,0,0,25.35047,36.24c-.23455-.38451-.50051-.75146-.7714-1.112a5.11376,5.11376,0,0,1-1.11645-3.23192,5.58393,5.58393,0,0,1,.71078-2.56352.54337.54337,0,0,1,.73031-.3189C25.06508,29.05254,25.2206,29.11567,25.41406,29.17941Z" fill="#b1b5c4"/>
      <path d="M20.702,23.47231c.05524.27165.09994.50392.14987.73506a3.90782,3.90782,0,0,0,3.47712,3.1987,8.82074,8.82074,0,0,1,2.8313.71739,5.06122,5.06122,0,0,1,2.30844,2.10891,4.03813,4.03813,0,0,1-.641,4.432,5.948,5.948,0,0,1-1.6953,1.2085.288.288,0,0,1-.26949-.03735,2.54948,2.54948,0,0,1-.30633-.50195c-.01473-.02966.05331-.12564.10415-.15843.316-.20375.65221-.37865.95521-.59945a3.08729,3.08729,0,0,0,.03655-5.15689,5.90054,5.90054,0,0,0-2.78335-1.075,7.11758,7.11758,0,0,1-2.36286-.64548,5.19827,5.19827,0,0,1-2.54767-3.20493c-.13638-.42864-.08574-.55812.30958-.78528C20.39767,23.63366,20.53059,23.56519,20.702,23.47231Z" fill="#b1b5c4"/>
    </g>
  </g>
</svg>
