<svg id="Layer_1" data-name="Layer 1" xmlns="http://www.w3.org/2000/svg" width="167" height="64" viewBox="0 0 167 64">
  <g>
    <path d="M82.41261,15.24584l9.80308-1.89548V23.81075a31.3634,31.3634,0,0,1,3.27219-.8704c5.40769-.8163,9.80093,2.57161,10.48569,8.30227a20.09465,20.09465,0,0,1-.26975,6.33641,10.87126,10.87126,0,0,1-11.0301,8.95237,52.99921,52.99921,0,0,1-5.65971-.31963c-1.1099-.105-2.20145-.40386-3.45312-.64479,0-.71076-.00059-1.34824.00006-1.98572.00727-7.10329.03559-14.20666.0112-21.30984-.00894-2.60426.57551-5.55276-3.40457-6.28349ZM92.39278,25.925V44.47864a3.6075,3.6075,0,0,0,4.37073-1.28324c2.749-3.3565,3.24637-11.86168.92962-15.5995C96.40311,25.51459,94.81055,25.00687,92.39278,25.925Z" fill="#b1b5c4"/>
    <path d="M20.34145,15.37392V14.05838h25.5728V23.0747l-1.28091.41594c-1.157-2.44827-1.82682-5.42515-4.57872-6.30241-2.39777-.76439-5.05674-.70945-7.89653-1.05229V28.79907c3.71729,1.01857,5.31113.11749,6.79-4.0356l1.22737-.12575V35.40084H38.97041c-1.54471-4.228-2.2932-4.68841-7.01709-4.233-.021,3.73465-.206,7.49793.7341,11.195.50045,1.96813,2.353,1.89073,3.95718,2.30132l.11578,1.22173H20.39015l-.29807-.49331c.43125-.33442.82672-.88782,1.3-.96514a3.23775,3.23775,0,0,0,2.994-3.40467c.1198-7.03912.27278-14.08305.12341-21.119C24.43977,16.62351,23.73565,16.179,20.34145,15.37392Z" fill="#b1b5c4"/>
    <path d="M53.55933,46.55972c-5.46743-.017-9.27985-2.97227-10.33152-8.33075a17.82217,17.82217,0,0,1-.20814-6.15329c1.572-9.694,10.89922-11.10888,16.44319-8.46652a9.18788,9.18788,0,0,1,2.05661,1.37157c3.45927,3.02182,4.701,9.50039,2.82347,14.51486C62.62891,44.07339,58.80862,46.576,53.55933,46.55972Zm4.72812-11.09138c-.17667-2.05474-.28829-3.64846-.46183-5.23541a12.3444,12.3444,0,0,0-.43219-2.08345c-.72949-2.51412-2.16606-3.98653-3.77169-3.91774-1.60709.06883-3.02215,1.40952-3.22723,4.10283a94.5376,94.5376,0,0,0-.0052,11.65149,7.6296,7.6296,0,0,0,1.458,3.56369c1.21759,1.828,3.28182,1.80214,4.57978.03273a5.67513,5.67513,0,0,0,1.02228-2.233C57.83293,39.26208,58.05791,37.14556,58.28745,35.46834Z" fill="#b1b5c4"/>
    <path d="M128.06569,33.59265h-12.972a8.21021,8.21021,0,0,0,3.454,8.45162c3.007,1.79276,5.9982,1.15355,8.9153-.51443l.44159.40908a7.45981,7.45981,0,0,1-.95876,1.60592c-5.30632,5.26569-14.77582,3.5967-17.8152-3.22007a13.4755,13.4755,0,0,1,.71957-12.7939,10.82119,10.82119,0,0,1,12.55054-4.57871C126.20485,24.23385,128.69269,28.75346,128.06569,33.59265ZM114.497,31.52717h7.1796a50.54893,50.54893,0,0,0-1.11771-5.52148,2.63952,2.63952,0,0,0-1.764-1.64245,2.85063,2.85063,0,0,0-2.23445,1.2862A54.2683,54.2683,0,0,0,114.497,31.52717Z" fill="#b1b5c4"/>
    <path d="M129.91592,45.35c-.63222-3.99594-.41017-6.49391.70752-7.19138.60489,1.127,1.14973,2.28569,1.82316,3.3641a5.08991,5.08991,0,0,0,4.84468,2.71177,3.18886,3.18886,0,0,0,3.16672-2.37418,2.88167,2.88167,0,0,0-1.45048-3.63242c-1.34-.74252-2.77142-1.32619-4.18284-1.93276-3.5365-1.51984-5.07185-3.77088-4.77243-7.05981a7.35869,7.35869,0,0,1,6.00626-6.415,16.60676,16.60676,0,0,1,9.37015.77355c.6475,4.09576.46115,5.81972-.76238,6.3622a9.95026,9.95026,0,0,0-1.224-2.50364,12.6149,12.6149,0,0,0-3.37361-2.89426c-1.423-.73162-2.79171-.06-3.60466,1.35965a2.966,2.966,0,0,0,.82289,3.973,21.28383,21.28383,0,0,0,3.067,1.76135c.83886.43576,1.72811.77332,2.58175,1.182,2.64881,1.26821,4.12218,3.24483,3.96022,6.31728a6.86676,6.86676,0,0,1-4.44272,6.4864C138.275,47.35,134.11171,46.59519,129.91592,45.35Z" fill="#b1b5c4"/>
    <path d="M65.00947,24.69032c3.22961-1.14977,6.58967-1.40006,9.97957-2.25483v4.49675c2.3775-3.42617,4.91756-5.54364,9.1361-3.86181-.793,2.12645-1.5466,4.14732-2.34887,6.29865-2.26442-.90214-4.40409-1.69234-6.76572-.00832-.05065,1.12666-.16385,2.40887-.15408,3.69015.0194,2.54619.03312,5.09621.18386,7.63666.19648,3.31151.36847,3.44049,3.58346,4.032a3.32121,3.32121,0,0,1,.13735.61416,2.1692,2.1692,0,0,1-.14247.563H64.788c.58365-.67841.83289-1.25712,1.19479-1.33924,1.65747-.37609,2.17994-1.4997,2.18988-3.00353q.0417-6.3045.04191-12.60925c.00123-1.757-.4456-3.2-2.5558-3.3771a.52253.52253,0,0,1-.29325-.17856A4.81462,4.81462,0,0,1,65.00947,24.69032Z" fill="#b1b5c4"/>
  </g>
</svg>
