<svg id="Layer_1" data-name="Layer 1" xmlns="http://www.w3.org/2000/svg" width="167" height="64" viewBox="0 0 167 64">
  <g>
    <g>
      <g>
        <path d="M47.61878,43.68463c2.40851-2.69295,3.58825-6.013,4.80037-9.32365.99448-2.71623,1.845-5.50981,4.56648-7.16929,4.19057-2.55529,9.13553-.19081,9.26945,4.68449.24984,9.09588-4.18833,15.78066-11.76075,20.24006-7.95382,4.684-16.21737,4.61224-24.35374.09554A23.33559,23.33559,0,0,0,40.377,54.26912c6.37279-.29891,9.85969-5.21855,7.24149-10.37719Z" fill="#787e8c"/>
        <path d="M47.61878,43.68463l-.00026.20729a32.8729,32.8729,0,0,1-5.35676,4.036c-5.23187,2.92115-10.68484,2.85619-16.27073,1.35086a19.87253,19.87253,0,0,1-5.16771-6.40991c1.08685.259,2.28744,1.34533,3.206-.1242.93971-1.50342-.0462-2.66208-.98706-3.765-.37927-.4446-.74512-.90327-1.0844-1.37881-2.25887-3.166-2.17991-8.92514.1492-11.52056l.18889,1.26962c.47961,5.66452,3.5616,9.40962,9.17056,10.883,2.39452.629,4.8602,1.00227,7.30609,1.41809C42.0878,40.2146,45.24047,41.0906,47.61878,43.68463Z" fill="#b1b5c4"/>
        <path d="M25.991,49.27878c5.58589,1.50533,11.03886,1.57029,16.27073-1.35086a32.8729,32.8729,0,0,0,5.35676-4.036c2.6182,5.15865-.8687,10.07829-7.24149,10.3772a23.33559,23.33559,0,0,1-10.23644-2.05734A17.39287,17.39287,0,0,1,25.991,49.27878Z" fill="#5e6677"/>
        <path d="M28.49455,10.71466A10.24238,10.24238,0,0,1,34.145,8.421c1.57031-.12688,3.13731.01906,3.94051,1.61658a4.1535,4.1535,0,0,1-.65324,4.8166c-2.17514,2.54774-5.56316,3.91914-8.6703,4.824-.44814-1.14382.28427-2.64895-1.46492-3.33689-.06855-.06327-.89721-.12432-.96576-.18758a9.61764,9.61764,0,0,0,3.91738-1.63524c1.05051-.82539,1.88814-1.85652,1.171-3.26976C30.73648,9.90247,29.54323,10.51539,28.49455,10.71466Z" fill="#b1b5c4"/>
        <path d="M22.107,26.08029c-2.32909,2.5954-2.408,8.35453-.14918,11.52054.33928.47554.70513.93421,1.0844,1.37881.94086,1.10295,1.92677,2.26161.98706,3.765a1.97383,1.97383,0,0,1-3.206.1242A22.47417,22.47417,0,0,1,17.95138,27.105c1.32618-1.71619,2.51212-3.573,4.57435-4.551Z" fill="#c0c4d4"/>
        <path d="M47.59142,31.29624a4.033,4.033,0,0,1-4.10732-4.03805,3.97288,3.97288,0,0,1,3.78253-4.02188,4.15053,4.15053,0,0,1,4.27266,4.02834A3.87483,3.87483,0,0,1,47.59142,31.29624Z" fill="#787e8c"/>
        <path d="M28.49455,10.71466c1.04868-.19927,2.24193-.81219,2.92511.53406.71717,1.41324-.12046,2.44437-1.171,3.26976a6.74705,6.74705,0,0,1-3.15733,1.63292A6.55846,6.55846,0,0,0,21.65,18.58983c-.18731.20079-.21948.87729-.79366.43259A23.74793,23.74793,0,0,1,28.49455,10.71466Z" fill="#5e6677"/>
        <path d="M20.85638,19.02242a7.453,7.453,0,0,1,.62284-.85708,6.23582,6.23582,0,0,1,5.45117-1.97984c.0686.06338.29813.09253.36666.15579a10.86055,10.86055,0,0,0-4.58011,5.984l-.19121.22874c-2.06223.978-3.24817,2.8348-4.57435,4.551A21.31607,21.31607,0,0,1,20.85638,19.02242Z" fill="#b1b5c4"/>
        <path d="M22.71694,22.32525a10.86055,10.86055,0,0,1,4.58011-5.984c1.62909.52781,1.75391,1.5741,1.64536,2.78111a1.814,1.814,0,0,1-.18042.55579A23.75675,23.75675,0,0,0,22.71694,22.32525Z" fill="#c0c4d4"/>
        <path d="M22.71694,22.32525A23.75675,23.75675,0,0,1,28.762,19.67819c-.53444,1.98734-2.24436,2.77059-3.8311,3.61726-1.66279.88724-2.91454,1.94963-2.6349,4.05429q-.09455-.63459-.189-1.26947a8.49151,8.49151,0,0,1,.4187-3.52627Z" fill="#c0c4d4" opacity="0.43"/>
        <path d="M28.985,24.46192a1.88338,1.88338,0,0,1,1.86554,1.94962,1.69879,1.69879,0,0,1-1.87661,1.85994,1.73223,1.73223,0,0,1-1.866-1.89062C27.109,25.19276,27.846,24.60608,28.985,24.46192Z" fill="#787e8c"/>
      </g>
      <circle cx="44.63433" cy="11.89681" r="1.60252" fill="#5e6677"/>
    </g>
    <g>
      <path d="M98.9861,17.46657s-.25793,4.6624-5.52384,4.6624c-1.1798,0-6.07805.18864-7.0318.23557a1.69734,1.69734,0,0,0-.42127.0712c-.71774.22337-2.62123,1.19767-3.21664,5.31138-.73912,5.10668.40316,10.21336,1.27667,11.55722s.87351,2.419,10.01178,2.0158v-6.8537H90.51977V30.09888h9.07107V45.01576a34.90735,34.90735,0,0,1-9.8102,1.34386c-4.63633-.20158-9.407-1.14228-11.69161-5.98019S76.4092,27.88151,77.61868,24.589s3.8972-6.98809,8.66792-7.12247S98.9861,17.46657,98.9861,17.46657Z" fill="#b1b5c4"/>
      <path d="M123.09156,17.63166s-.2024,4.95871-4.04793,4.75631-8.80423-.91078-9.31022,2.32756,2.32755,3.23834,5.3635,3.94672,8.09585,2.63115,8.197,6.67908.3036,7.38746-4.25032,9.61382-16.39409.91078-16.39409.91078,0-4.45271,4.14912-4.65511,10.24391,1.51847,10.32221-2.63115c.1012-5.3635-7.55759-3.34262-11.739-7.08387-3.84553-3.44073-2.86035-13.62683,4.55863-13.81466C117.04219,17.50136,123.09156,17.63166,123.09156,17.63166Z" fill="#b1b5c4"/>
      <path d="M127.10464,17.52249V46.59316h5.60648V22.29839h5.918a3.0413,3.0413,0,0,1,2.90707,3.01089c.31147,3.01089-.83059,3.42619-1.86883,3.9453s-4.25678,1.66119-3.11472,5.39884l6.02179,11.83592h6.85237l-7.06-12.77033s5.60648-.8279,5.60648-8.825c0-8.40972-10.79767-7.37149-10.79767-7.37149Z" fill="#b1b5c4"/>
    </g>
  </g>
</svg>
