<svg id="Layer_1" data-name="Layer 1" xmlns="http://www.w3.org/2000/svg" width="167" height="64" viewBox="0 0 167 64">
  <g>
    <path d="M46.92447,45.51936H41.65641c-.63262-1.47321-1.2444-2.87441-1.8376-4.28343q-3.5973-8.54459-7.18736-17.09222c-.5016-1.19082-.80444-1.27612-2.08754-1.32968a2.254,2.254,0,0,0-2.43584,1.74309c-1.18561,3.05475-2.46848,6.07175-3.71157,9.10153h-5.18c.31854-.76441.60291-1.47579.9094-2.17751,1.74236-3.9891,3.50656-7.9688,5.22188-11.96947a1.57621,1.57621,0,0,1,1.69247-1.13789c2.42269.05791,4.8477.01454,7.27173.02525a10.66949,10.66949,0,0,1,1.12034.12142C39.26761,27.53077,43.07531,36.47634,46.92447,45.51936Z" fill="#b1b5c4"/>
    <path d="M99.74432,27.25772H95.91269v4.715H93.35418V18.55516h.81876c1.88441,0,3.769-.01351,5.65315.00746a12.99692,12.99692,0,0,1,1.92531.16319,2.91715,2.91715,0,0,1,2.67331,2.6963,10.89639,10.89639,0,0,1,.1315,2.32569,3.14486,3.14486,0,0,1-2.23958,3.21l2.96213,4.94444h-2.8024Q101.12552,29.60579,99.74432,27.25772Zm-3.8299-1.72287a3.304,3.304,0,0,0,.51072.081c1.39755-.01141,2.7994.03009,4.19119-.06826,1.16372-.08223,1.26092-.27029,1.26345-1.40426q.0027-1.21077.00005-2.42154c-.00221-1.12753-.27445-1.41576-1.43041-1.43665-1.10279-.01993-2.20621-.00484-3.30935-.00509-.395-.00009-.78995,0-1.22565,0Z" fill="#b1b5c4"/>
    <path d="M56.32278,18.55514c.96913,0,1.879-.01415,2.78821.003,1.77458.03349,3.55511.00679,5.32144.14985a3.02387,3.02387,0,0,1,2.97477,2.95339,9.07978,9.07978,0,0,1-.129,3.36316,2.81545,2.81545,0,0,1-2.45988,2.34294,28.638,28.638,0,0,1-3.29727.18275c-.85468.02634-1.71083.00527-2.6487.00527V31.9619H56.32278Zm8.41928,6.935c0-1.40759.00258-2.6418-.00081-3.876-.00274-.99752-.267-1.29353-1.277-1.32506-.99274-.031-1.98716-.00838-2.98084-.009-.50131-.00033-1.00262-.00006-1.60615-.00006-.00871,1.94084-.03029,3.76788.01169,5.57689,1.73465,0,3.314.01878,4.89217-.016A3.3088,3.3088,0,0,0,64.74206,25.49019Z" fill="#b1b5c4"/>
    <path d="M134.41038,18.59109h8.96978l-.31108,1.67264h-6.10737v4.48H142.249v1.623h-5.31959v5.61144h-2.519Z" fill="#b1b5c4"/>
    <path d="M117.49924,18.72548h4.60529c1.82666,4.38419,3.659,8.782,5.52571,13.26232h-2.47031c-.59318-1.41355-1.18912-2.81647-1.77129-4.22509-.83057-2.00968-1.64354-4.02664-2.47893-6.03429-.42838-1.02948-.75837-1.15045-2.01465-.72373-.66963,1.62621-1.37219,3.3324-2.09967,5.09914l-2.509.1303C115.39873,23.63451,116.44814,21.18194,117.49924,18.72548Z" fill="#b1b5c4"/>
    <path d="M87.60656,32.00348H85.14924c-.25068-.5784-.50205-1.13605-.7356-1.70107q-1.76973-4.28137-3.53174-8.566c-.35565-.86317-.6038-1.013-1.35828-.9474-.5534.04812-.77774.39633-.955.84561-.47278,1.1985-.95454,2.39348-1.43634,3.5884-.11011.27306-.23477.54025-.38277.87889l-2.49585.13924c1.11226-2.60655,2.157-5.05473,3.2013-7.50211h4.61962Z" fill="#b1b5c4"/>
    <path d="M13.85056,45.61562l3.12-7.09543h5.26127c-.15644.38911-.27955.7076-.41181,1.02224-.72888,1.73382-1.47727,3.45972-2.18134,5.20353a1.25038,1.25038,0,0,1-1.35481.88036C16.86307,45.59073,15.44072,45.61562,13.85056,45.61562Z" fill="#b1b5c4"/>
    <path d="M150.67132,18.59138h2.47812v13.374h-2.47812Z" fill="#b1b5c4"/>
    <path d="M71.7905,31.89893a1.73146,1.73146,0,0,1,.06607-.32948c.41973-.98483.84545-1.96712,1.28625-2.9889H75.6111l-1.34769,3.31838Z" fill="#b1b5c4"/>
    <path d="M115.69454,28.57329c-.08285.24076-.14118.4423-.22049.63522-.3645.88645-.73488,1.7705-1.11679,2.68818H111.9405a.84137.84137,0,0,1,.00367-.27093c.4256-1.00908.85807-2.01525,1.30194-3.05247Z" fill="#b1b5c4"/>
    <path d="M82.31331,45.442l-.73979-1.5352H78.72328l-.70852,1.44636-.25043-.11334c.68377-1.83717,1.46073-3.63726,2.235-5.47534A16.952,16.952,0,0,1,82.31331,45.442ZM80.24108,40.6026l-.18325-.0411-1.16542,2.84805h2.51774Z" fill="#b1b5c4"/>
    <path d="M133.14277,45.3517l-.72494-1.44742h-2.856l-.71828,1.58591c-.1171-.82123,1.69012-5.25047,2.29648-5.74107.757,1.8445,1.50117,3.65781,2.24536,5.47111Zm-.89053-1.90792-1.184-2.87195-.18763.02563-1.15293,2.84632Z" fill="#b1b5c4"/>
    <path d="M92.66123,43.07618v2.3296c-.39925-.51678-.49457-4.46269-.22583-5.6318a21.97621,21.97621,0,0,1,2.30591.01676c.88485.09346,1.22672.6034,1.23205,1.5921.0054,1.002-.31289,1.46069-1.22265,1.58708C94.09552,43.06094,93.425,43.04171,92.66123,43.07618Zm.058-.42747c.69973,0,1.341.03351,1.977-.00951.62537-.04229.86132-.34736.89319-1.00561.04584-.94649-.13993-1.355-.7912-1.42458a19.89481,19.89481,0,0,0-2.079-.01608Z" fill="#b1b5c4"/>
    <path d="M67.825,41.29507q-.15917-.37835-.31827-.757a3.49647,3.49647,0,0,0-2.90155-.1892,1.60984,1.60984,0,0,0-.5592.99353,17.28569,17.28569,0,0,0-.01924,2.49933A1.13852,1.13852,0,0,0,65.25858,45.05c.18749.01328.3766.00414.565.00435,1.40527.00159,1.40527.00151,2.0762-1.09916.20141.65519-.06311,1.27044-.72442,1.34637a10.59843,10.59843,0,0,1-2.47474-.0162,1.13163,1.13163,0,0,1-.95825-1.15221c-.04188-1.01995-.04808-2.04463.0011-3.06393a1.116,1.116,0,0,1,1.08828-1.18884,8.598,8.598,0,0,1,2.15607-.01694c.7742.09772.99131.48255.9945,1.36779Z" fill="#b1b5c4"/>
    <path d="M118.23827,45.2759V40.22118l-2.23989-.11371c.74832-.45106,4.01728-.44185,4.5615.03142h-2.0351v5.13894Z" fill="#b1b5c4"/>
    <path d="M143.31994,45.30413V39.94254l.21651-.00994c.13372,1.66564-.02878,3.35106.095,5.10564h2.84258C146.08948,45.5088,144.32222,45.61238,143.31994,45.30413Z" fill="#b1b5c4"/>
    <ellipse cx="106.04442" cy="42.61051" rx="0.10452" ry="3.76702" fill="#b1b5c4"/>
  </g>
</svg>
