<?xml version="1.0" encoding="utf-8"?>
<!-- Generator: Adobe Illustrator 25.0.1, SVG Export Plug-In . SVG Version: 6.00 Build 0)  -->
<svg version="1.1" id="Шар_1" xmlns="http://www.w3.org/2000/svg" xmlns:xlink="http://www.w3.org/1999/xlink" x="0px" y="0px"
	 viewBox="0 0 944 944" style="enable-background:new 0 0 944 944;" xml:space="preserve">
<style type="text/css">
	.st0{fill:#FF592C;}
	.st1{fill:#FFFFFF;}
</style>
<circle class="st0" cx="472" cy="472" r="418.9"/>
<g>
	<path class="st1" d="M472,578c19.1,0,34.5-15.4,34.5-34.5c0-19-15.4-34.5-34.5-34.5c-19,0-34.5,15.4-34.5,34.5
		C437.5,562.5,452.9,578,472,578z"/>
	<path class="st1" d="M641.5,481.1l-67.9-45.5c-4.1-14.5-16.9-25.3-32.6-25.3c-19,0-34.5,15.4-34.5,34.5c0,19.1,15.4,34.5,34.5,34.5
		c1.2,0,2.2-0.6,3.4-0.7l57.7,38.7v104.4H346V517.3l56.8-38.1c0.1,0,0.1,0,0.2,0c19,0,34.5-15.4,34.5-34.5c0-19-15.4-34.5-34.5-34.5
		c-16.9,0-30.3,12.4-33.3,28.4l-63.1,42.3c-4.5,3-7.2,7.3-9.1,12c-2.1,3.7-3.5,7.8-3.5,12.3v142.4c0,14.3,11.7,26,26,26h308.1
		c14.3,0,26-11.7,26-26V505.3c0-4.5-1.5-8.6-3.5-12.3C648.7,488.4,645.9,484.1,641.5,481.1z"/>
	<path class="st1" d="M714.5,374.9l-132.2-96.6c-3.3-3.4-7.5-5.6-12.2-6.8c-1.4-0.4-2.7-0.7-4-0.8c-0.8-0.1-1.6-0.5-2.5-0.5H381.9
		c-0.9,0-1.6,0.4-2.5,0.5c-2.6,0.1-5,0.6-7.5,1.5c-0.1,0-0.2,0.1-0.3,0.1c-1.9,0.7-3.8,1.2-5.6,2.5L227.5,376.1
		c-8.1,4.2-13.9,12.5-13.9,22.3V587c0,14,11.4,25.4,25.4,25.4c14,0,25.4-11.4,25.4-25.4V415.7l123.5-90.2h167.8L679.6,416v171
		c0,14,11.4,25.4,25.4,25.4c14,0,25.4-11.4,25.4-25.4V398.4C730.4,387.8,723.8,378.7,714.5,374.9z"/>
</g>
</svg>
